<mxfile host="65bd71144e">
    <diagram id="h5a3ldeYXyFLJkilJJnu" name="Page-1">
        <mxGraphModel dx="1878" dy="571" grid="1" gridSize="10" guides="1" tooltips="1" connect="1" arrows="1" fold="1" page="1" pageScale="1" pageWidth="1169" pageHeight="827" math="0" shadow="0">
            <root>
                <mxCell id="0"/>
                <mxCell id="1" parent="0"/>
                <mxCell id="CEuMxIN872mGvEXIS4uV-9" value="" style="rounded=1;whiteSpace=wrap;html=1;" parent="1" vertex="1">
                    <mxGeometry x="499" y="170" width="41" height="160" as="geometry"/>
                </mxCell>
                <mxCell id="oYQ-7bH0k8p__cUf9KNq-63" value="" style="rounded=1;whiteSpace=wrap;html=1;fillColor=none;" parent="1" vertex="1">
                    <mxGeometry x="20" y="715" width="1120" height="80" as="geometry"/>
                </mxCell>
                <mxCell id="XavPDIhAIsiHv7DO1WEM-35" style="edgeStyle=orthogonalEdgeStyle;rounded=1;orthogonalLoop=1;jettySize=auto;html=1;entryX=0.5;entryY=1;entryDx=0;entryDy=0;endArrow=block;endFill=1;exitX=0.029;exitY=-0.008;exitDx=0;exitDy=0;exitPerimeter=0;" parent="1" target="XavPDIhAIsiHv7DO1WEM-1" edge="1">
                    <mxGeometry relative="1" as="geometry">
                        <mxPoint x="48.86999999999989" y="714.3599999999999" as="sourcePoint"/>
                    </mxGeometry>
                </mxCell>
                <mxCell id="SNIWQE7JzBNAjQenBuYs-28" style="edgeStyle=orthogonalEdgeStyle;rounded=1;orthogonalLoop=1;jettySize=auto;html=1;exitX=1;exitY=0.5;exitDx=0;exitDy=0;entryX=0;entryY=0.75;entryDx=0;entryDy=0;endArrow=block;endFill=1;" parent="1" source="XavPDIhAIsiHv7DO1WEM-1" target="XavPDIhAIsiHv7DO1WEM-4" edge="1">
                    <mxGeometry relative="1" as="geometry">
                        <Array as="points">
                            <mxPoint x="420" y="595"/>
                            <mxPoint x="420" y="508"/>
                        </Array>
                    </mxGeometry>
                </mxCell>
                <mxCell id="6G7kog38tWFpas8sZ1hU-5" style="edgeStyle=orthogonalEdgeStyle;rounded=1;orthogonalLoop=1;jettySize=auto;html=1;exitX=1;exitY=0.5;exitDx=0;exitDy=0;entryX=0.08;entryY=-0.01;entryDx=0;entryDy=0;entryPerimeter=0;endArrow=block;endFill=1;" parent="1" source="XavPDIhAIsiHv7DO1WEM-1" edge="1">
                    <mxGeometry relative="1" as="geometry">
                        <mxPoint x="103.79999999999995" y="714.2" as="targetPoint"/>
                    </mxGeometry>
                </mxCell>
                <mxCell id="XavPDIhAIsiHv7DO1WEM-1" value="" style="rounded=1;whiteSpace=wrap;html=1;" parent="1" vertex="1">
                    <mxGeometry x="29" y="555" width="40" height="80" as="geometry"/>
                </mxCell>
                <mxCell id="XavPDIhAIsiHv7DO1WEM-7" style="edgeStyle=orthogonalEdgeStyle;rounded=1;orthogonalLoop=1;jettySize=auto;html=1;exitX=1;exitY=0.5;exitDx=0;exitDy=0;entryX=0;entryY=0.25;entryDx=0;entryDy=0;endArrow=block;endFill=1;" parent="1" source="XavPDIhAIsiHv7DO1WEM-3" target="XavPDIhAIsiHv7DO1WEM-4" edge="1">
                    <mxGeometry relative="1" as="geometry">
                        <Array as="points">
                            <mxPoint x="420" y="355"/>
                            <mxPoint x="420" y="443"/>
                        </Array>
                    </mxGeometry>
                </mxCell>
                <mxCell id="XavPDIhAIsiHv7DO1WEM-9" style="edgeStyle=orthogonalEdgeStyle;rounded=1;orthogonalLoop=1;jettySize=auto;html=1;exitX=0;exitY=0.5;exitDx=0;exitDy=0;endArrow=block;endFill=1;entryX=0;entryY=0.5;entryDx=0;entryDy=0;" parent="1" target="XavPDIhAIsiHv7DO1WEM-3" edge="1">
                    <mxGeometry relative="1" as="geometry">
                        <mxPoint x="69" y="595" as="sourcePoint"/>
                        <Array as="points">
                            <mxPoint x="105" y="595"/>
                            <mxPoint x="105" y="355"/>
                        </Array>
                    </mxGeometry>
                </mxCell>
                <mxCell id="XavPDIhAIsiHv7DO1WEM-36" style="edgeStyle=orthogonalEdgeStyle;rounded=1;orthogonalLoop=1;jettySize=auto;html=1;exitX=0.193;exitY=0.006;exitDx=0;exitDy=0;entryX=0.5;entryY=1;entryDx=0;entryDy=0;endArrow=block;endFill=1;exitPerimeter=0;" parent="1" target="XavPDIhAIsiHv7DO1WEM-3" edge="1">
                    <mxGeometry relative="1" as="geometry">
                        <mxPoint x="169.53999999999996" y="715.48" as="sourcePoint"/>
                    </mxGeometry>
                </mxCell>
                <mxCell id="6G7kog38tWFpas8sZ1hU-6" style="edgeStyle=orthogonalEdgeStyle;rounded=1;orthogonalLoop=1;jettySize=auto;html=1;exitX=1;exitY=0.5;exitDx=0;exitDy=0;entryX=0.233;entryY=-0.002;entryDx=0;entryDy=0;entryPerimeter=0;endArrow=block;endFill=1;" parent="1" edge="1">
                    <mxGeometry relative="1" as="geometry">
                        <mxPoint x="259.99" y="714.8399999999999" as="targetPoint"/>
                        <mxPoint x="178" y="355" as="sourcePoint"/>
                    </mxGeometry>
                </mxCell>
                <mxCell id="11" style="edgeStyle=none;html=1;exitX=1;exitY=0.5;exitDx=0;exitDy=0;entryX=0;entryY=0.5;entryDx=0;entryDy=0;startArrow=none;startFill=0;endArrow=classic;endFill=1;" edge="1" parent="1" source="XavPDIhAIsiHv7DO1WEM-3" target="4">
                    <mxGeometry relative="1" as="geometry">
                        <Array as="points">
                            <mxPoint x="260" y="355"/>
                            <mxPoint x="260" y="475"/>
                        </Array>
                    </mxGeometry>
                </mxCell>
                <mxCell id="XavPDIhAIsiHv7DO1WEM-3" value="" style="rounded=1;whiteSpace=wrap;html=1;" parent="1" vertex="1">
                    <mxGeometry x="149" y="315" width="40" height="80" as="geometry"/>
                </mxCell>
                <mxCell id="XavPDIhAIsiHv7DO1WEM-33" style="edgeStyle=orthogonalEdgeStyle;rounded=1;orthogonalLoop=1;jettySize=auto;html=1;exitX=1;exitY=0.5;exitDx=0;exitDy=0;endArrow=block;endFill=1;entryX=0;entryY=0.5;entryDx=0;entryDy=0;" parent="1" source="XavPDIhAIsiHv7DO1WEM-4" target="XavPDIhAIsiHv7DO1WEM-10" edge="1">
                    <mxGeometry relative="1" as="geometry">
                        <mxPoint x="559" y="475" as="targetPoint"/>
                        <Array as="points">
                            <mxPoint x="569" y="475"/>
                            <mxPoint x="569" y="420"/>
                        </Array>
                    </mxGeometry>
                </mxCell>
                <mxCell id="XavPDIhAIsiHv7DO1WEM-38" style="edgeStyle=orthogonalEdgeStyle;rounded=1;orthogonalLoop=1;jettySize=auto;html=1;exitX=0.5;exitY=0;exitDx=0;exitDy=0;entryX=0.5;entryY=1;entryDx=0;entryDy=0;endArrow=block;endFill=1;" parent="1" target="XavPDIhAIsiHv7DO1WEM-4" edge="1">
                    <mxGeometry relative="1" as="geometry">
                        <mxPoint x="469" y="715" as="sourcePoint"/>
                    </mxGeometry>
                </mxCell>
                <mxCell id="XavPDIhAIsiHv7DO1WEM-4" value="" style="rounded=1;whiteSpace=wrap;html=1;" parent="1" vertex="1">
                    <mxGeometry x="449" y="410" width="40" height="130" as="geometry"/>
                </mxCell>
                <mxCell id="XavPDIhAIsiHv7DO1WEM-17" value="" style="group" parent="1" connectable="0" vertex="1">
                    <mxGeometry x="609" y="300" width="80" height="240" as="geometry"/>
                </mxCell>
                <mxCell id="XavPDIhAIsiHv7DO1WEM-10" value="" style="rounded=1;whiteSpace=wrap;html=1;" parent="XavPDIhAIsiHv7DO1WEM-17" vertex="1">
                    <mxGeometry width="80" height="240" as="geometry"/>
                </mxCell>
                <mxCell id="XavPDIhAIsiHv7DO1WEM-12" value="" style="endArrow=none;html=1;rounded=1;" parent="XavPDIhAIsiHv7DO1WEM-17" edge="1">
                    <mxGeometry width="50" height="50" relative="1" as="geometry">
                        <mxPoint x="12.5" y="39" as="sourcePoint"/>
                        <mxPoint x="67.5" y="39" as="targetPoint"/>
                    </mxGeometry>
                </mxCell>
                <mxCell id="XavPDIhAIsiHv7DO1WEM-13" value="" style="endArrow=none;html=1;rounded=1;" parent="XavPDIhAIsiHv7DO1WEM-17" edge="1">
                    <mxGeometry width="50" height="50" relative="1" as="geometry">
                        <mxPoint x="12.5" y="60" as="sourcePoint"/>
                        <mxPoint x="67.5" y="60" as="targetPoint"/>
                    </mxGeometry>
                </mxCell>
                <mxCell id="XavPDIhAIsiHv7DO1WEM-14" value="" style="endArrow=none;html=1;rounded=1;" parent="XavPDIhAIsiHv7DO1WEM-17" edge="1">
                    <mxGeometry width="50" height="50" relative="1" as="geometry">
                        <mxPoint x="12.5" y="80" as="sourcePoint"/>
                        <mxPoint x="67.5" y="80" as="targetPoint"/>
                    </mxGeometry>
                </mxCell>
                <mxCell id="XavPDIhAIsiHv7DO1WEM-15" value="" style="endArrow=none;html=1;rounded=1;" parent="XavPDIhAIsiHv7DO1WEM-17" edge="1">
                    <mxGeometry width="50" height="50" relative="1" as="geometry">
                        <mxPoint x="12.5" y="101" as="sourcePoint"/>
                        <mxPoint x="67.5" y="101" as="targetPoint"/>
                    </mxGeometry>
                </mxCell>
                <mxCell id="XavPDIhAIsiHv7DO1WEM-16" value="" style="endArrow=none;dashed=1;html=1;dashPattern=1 3;strokeWidth=2;rounded=1;" parent="XavPDIhAIsiHv7DO1WEM-17" edge="1">
                    <mxGeometry width="50" height="50" relative="1" as="geometry">
                        <mxPoint x="39.5" y="160" as="sourcePoint"/>
                        <mxPoint x="39.5" y="120" as="targetPoint"/>
                    </mxGeometry>
                </mxCell>
                <mxCell id="XavPDIhAIsiHv7DO1WEM-40" value="right elements counter (REC)" style="text;html=1;strokeColor=none;fillColor=none;align=center;verticalAlign=middle;whiteSpace=wrap;rounded=0;" parent="1" vertex="1">
                    <mxGeometry x="112" y="280" width="110" height="30" as="geometry"/>
                </mxCell>
                <mxCell id="XavPDIhAIsiHv7DO1WEM-43" value="addr&lt;br&gt;mux" style="text;html=1;strokeColor=none;fillColor=none;align=center;verticalAlign=middle;whiteSpace=wrap;rounded=0;" parent="1" vertex="1">
                    <mxGeometry x="439" y="375" width="60" height="30" as="geometry"/>
                </mxCell>
                <mxCell id="XavPDIhAIsiHv7DO1WEM-45" value="RAM" style="text;html=1;strokeColor=none;fillColor=none;align=center;verticalAlign=middle;whiteSpace=wrap;rounded=0;direction=south;" parent="1" vertex="1">
                    <mxGeometry x="620" y="253" width="60" height="60" as="geometry"/>
                </mxCell>
                <mxCell id="XavPDIhAIsiHv7DO1WEM-48" value="ctr" style="text;html=1;strokeColor=none;fillColor=none;align=center;verticalAlign=middle;whiteSpace=wrap;rounded=0;" parent="1" vertex="1">
                    <mxGeometry x="439" y="715" width="60" height="30" as="geometry"/>
                </mxCell>
                <mxCell id="XavPDIhAIsiHv7DO1WEM-49" value="" style="endArrow=none;html=1;rounded=1;" parent="1" edge="1">
                    <mxGeometry width="50" height="50" relative="1" as="geometry">
                        <mxPoint x="458.5" y="690" as="sourcePoint"/>
                        <mxPoint x="479.5" y="670" as="targetPoint"/>
                    </mxGeometry>
                </mxCell>
                <mxCell id="XavPDIhAIsiHv7DO1WEM-51" value="" style="endArrow=none;html=1;rounded=1;" parent="1" edge="1">
                    <mxGeometry width="50" height="50" relative="1" as="geometry">
                        <mxPoint x="158.5" y="690" as="sourcePoint"/>
                        <mxPoint x="179.5" y="670" as="targetPoint"/>
                    </mxGeometry>
                </mxCell>
                <mxCell id="XavPDIhAIsiHv7DO1WEM-52" value="" style="endArrow=none;html=1;rounded=1;" parent="1" edge="1">
                    <mxGeometry width="50" height="50" relative="1" as="geometry">
                        <mxPoint x="38.5" y="690" as="sourcePoint"/>
                        <mxPoint x="59.5" y="670" as="targetPoint"/>
                    </mxGeometry>
                </mxCell>
                <mxCell id="XavPDIhAIsiHv7DO1WEM-54" value="2" style="text;html=1;strokeColor=none;fillColor=none;align=center;verticalAlign=middle;whiteSpace=wrap;rounded=0;" parent="1" vertex="1">
                    <mxGeometry x="35" y="670" width="60" height="30" as="geometry"/>
                </mxCell>
                <mxCell id="XavPDIhAIsiHv7DO1WEM-56" value="3" style="text;html=1;strokeColor=none;fillColor=none;align=center;verticalAlign=middle;whiteSpace=wrap;rounded=0;" parent="1" vertex="1">
                    <mxGeometry x="155" y="670" width="60" height="30" as="geometry"/>
                </mxCell>
                <mxCell id="XavPDIhAIsiHv7DO1WEM-60" value="1" style="text;html=1;strokeColor=none;fillColor=none;align=center;verticalAlign=middle;whiteSpace=wrap;rounded=0;" parent="1" vertex="1">
                    <mxGeometry x="455" y="670" width="60" height="30" as="geometry"/>
                </mxCell>
                <mxCell id="XavPDIhAIsiHv7DO1WEM-62" value="clr&lt;br&gt;ld&lt;br&gt;inc" style="text;html=1;strokeColor=none;fillColor=none;align=center;verticalAlign=middle;whiteSpace=wrap;rounded=0;" parent="1" vertex="1">
                    <mxGeometry x="137" y="730" width="60" height="30" as="geometry"/>
                </mxCell>
                <mxCell id="XavPDIhAIsiHv7DO1WEM-64" value="clr&lt;br&gt;inc" style="text;html=1;strokeColor=none;fillColor=none;align=center;verticalAlign=middle;whiteSpace=wrap;rounded=0;" parent="1" vertex="1">
                    <mxGeometry x="16" y="720" width="60" height="30" as="geometry"/>
                </mxCell>
                <mxCell id="XavPDIhAIsiHv7DO1WEM-65" value="CONTROL PATH (FSM)" style="text;html=1;strokeColor=none;fillColor=none;align=center;verticalAlign=middle;whiteSpace=wrap;rounded=0;fontStyle=1" parent="1" vertex="1">
                    <mxGeometry x="454" y="752" width="160" height="30" as="geometry"/>
                </mxCell>
                <mxCell id="XavPDIhAIsiHv7DO1WEM-66" value="address" style="text;html=1;strokeColor=none;fillColor=none;align=center;verticalAlign=middle;whiteSpace=wrap;rounded=0;" parent="1" vertex="1">
                    <mxGeometry x="539" y="480" width="60" height="30" as="geometry"/>
                </mxCell>
                <mxCell id="XavPDIhAIsiHv7DO1WEM-67" value="data_out" style="text;html=1;strokeColor=none;fillColor=none;align=center;verticalAlign=middle;whiteSpace=wrap;rounded=0;" parent="1" vertex="1">
                    <mxGeometry x="740" y="485" width="60" height="30" as="geometry"/>
                </mxCell>
                <mxCell id="vzGrpNzlCgdCoovgSfa--2" value="data&lt;br&gt;mux" style="text;html=1;strokeColor=none;fillColor=none;align=center;verticalAlign=middle;whiteSpace=wrap;rounded=0;" parent="1" vertex="1">
                    <mxGeometry x="489.75" y="136" width="60" height="30" as="geometry"/>
                </mxCell>
                <mxCell id="vzGrpNzlCgdCoovgSfa--9" style="edgeStyle=orthogonalEdgeStyle;rounded=1;orthogonalLoop=1;jettySize=auto;html=1;exitX=1;exitY=0.5;exitDx=0;exitDy=0;entryX=0;entryY=0.75;entryDx=0;entryDy=0;endArrow=block;endFill=1;" parent="1" source="vzGrpNzlCgdCoovgSfa--4" edge="1">
                    <mxGeometry relative="1" as="geometry">
                        <Array as="points">
                            <mxPoint x="310" y="220"/>
                            <mxPoint x="310" y="298"/>
                        </Array>
                        <mxPoint x="255" y="220" as="sourcePoint"/>
                        <mxPoint x="499" y="297.5" as="targetPoint"/>
                    </mxGeometry>
                </mxCell>
                <mxCell id="vzGrpNzlCgdCoovgSfa--14" style="edgeStyle=orthogonalEdgeStyle;rounded=1;orthogonalLoop=1;jettySize=auto;html=1;exitX=0;exitY=0.25;exitDx=0;exitDy=0;endArrow=block;endFill=1;entryX=0;entryY=0.25;entryDx=0;entryDy=0;" parent="1" target="vzGrpNzlCgdCoovgSfa--4" edge="1">
                    <mxGeometry relative="1" as="geometry">
                        <mxPoint x="133" y="200" as="sourcePoint"/>
                    </mxGeometry>
                </mxCell>
                <mxCell id="vzGrpNzlCgdCoovgSfa--25" style="edgeStyle=orthogonalEdgeStyle;rounded=1;orthogonalLoop=1;jettySize=auto;html=1;exitX=0.5;exitY=1;exitDx=0;exitDy=0;entryX=0.356;entryY=-0.006;entryDx=0;entryDy=0;endArrow=block;endFill=1;entryPerimeter=0;" parent="1" source="vzGrpNzlCgdCoovgSfa--4" edge="1">
                    <mxGeometry relative="1" as="geometry">
                        <mxPoint x="213.3599999999999" y="714.8199999999999" as="targetPoint"/>
                    </mxGeometry>
                </mxCell>
                <mxCell id="oYQ-7bH0k8p__cUf9KNq-41" style="edgeStyle=orthogonalEdgeStyle;rounded=1;orthogonalLoop=1;jettySize=auto;html=1;exitX=1;exitY=0.5;exitDx=0;exitDy=0;endArrow=block;endFill=1;entryX=0.243;entryY=-0.01;entryDx=0;entryDy=0;entryPerimeter=0;" parent="1" source="vzGrpNzlCgdCoovgSfa--4" edge="1">
                    <mxGeometry relative="1" as="geometry">
                        <mxPoint x="309.73" y="714.2" as="targetPoint"/>
                    </mxGeometry>
                </mxCell>
                <mxCell id="vzGrpNzlCgdCoovgSfa--4" value="" style="rounded=1;whiteSpace=wrap;html=1;" parent="1" vertex="1">
                    <mxGeometry x="193" y="180" width="40" height="80" as="geometry"/>
                </mxCell>
                <mxCell id="vzGrpNzlCgdCoovgSfa--15" style="edgeStyle=orthogonalEdgeStyle;rounded=1;orthogonalLoop=1;jettySize=auto;html=1;entryX=0;entryY=0.25;entryDx=0;entryDy=0;endArrow=block;endFill=1;" parent="1" target="XavPDIhAIsiHv7DO1WEM-10" edge="1">
                    <mxGeometry relative="1" as="geometry">
                        <Array as="points">
                            <mxPoint x="570" y="250"/>
                            <mxPoint x="570" y="360"/>
                        </Array>
                        <mxPoint x="540" y="250" as="sourcePoint"/>
                    </mxGeometry>
                </mxCell>
                <mxCell id="SNIWQE7JzBNAjQenBuYs-3" style="edgeStyle=orthogonalEdgeStyle;rounded=1;orthogonalLoop=1;jettySize=auto;html=1;exitX=0.563;exitY=0.013;exitDx=0;exitDy=0;entryX=0.5;entryY=1;entryDx=0;entryDy=0;endArrow=block;endFill=1;exitPerimeter=0;" parent="1" edge="1">
                    <mxGeometry relative="1" as="geometry">
                        <mxPoint x="518.1399999999999" y="716.04" as="sourcePoint"/>
                        <mxPoint x="519" y="330" as="targetPoint"/>
                        <Array as="points">
                            <mxPoint x="518" y="523"/>
                        </Array>
                    </mxGeometry>
                </mxCell>
                <mxCell id="vzGrpNzlCgdCoovgSfa--12" value="UART R" style="text;html=1;strokeColor=none;fillColor=none;align=center;verticalAlign=middle;whiteSpace=wrap;rounded=0;" parent="1" vertex="1">
                    <mxGeometry x="183" y="149" width="60" height="30" as="geometry"/>
                </mxCell>
                <mxCell id="vzGrpNzlCgdCoovgSfa--16" value="data_in" style="text;html=1;strokeColor=none;fillColor=none;align=center;verticalAlign=middle;whiteSpace=wrap;rounded=0;" parent="1" vertex="1">
                    <mxGeometry x="544" y="214" width="60" height="30" as="geometry"/>
                </mxCell>
                <mxCell id="vzGrpNzlCgdCoovgSfa--21" style="edgeStyle=orthogonalEdgeStyle;rounded=1;orthogonalLoop=1;jettySize=auto;html=1;exitX=1;exitY=0.5;exitDx=0;exitDy=0;endArrow=block;endFill=1;" parent="1" source="vzGrpNzlCgdCoovgSfa--18" edge="1">
                    <mxGeometry relative="1" as="geometry">
                        <mxPoint x="1152.5" y="80" as="targetPoint"/>
                    </mxGeometry>
                </mxCell>
                <mxCell id="vzGrpNzlCgdCoovgSfa--27" style="edgeStyle=orthogonalEdgeStyle;rounded=1;orthogonalLoop=1;jettySize=auto;html=1;exitX=0.25;exitY=1;exitDx=0;exitDy=0;endArrow=block;endFill=1;entryX=0.928;entryY=-0.006;entryDx=0;entryDy=0;entryPerimeter=0;" parent="1" source="vzGrpNzlCgdCoovgSfa--18" edge="1">
                    <mxGeometry relative="1" as="geometry">
                        <mxPoint x="1075.8400000000001" y="714.5200000000002" as="targetPoint"/>
                        <Array as="points">
                            <mxPoint x="1076" y="447"/>
                            <mxPoint x="1076" y="447"/>
                        </Array>
                    </mxGeometry>
                </mxCell>
                <mxCell id="SNIWQE7JzBNAjQenBuYs-61" style="edgeStyle=orthogonalEdgeStyle;rounded=1;orthogonalLoop=1;jettySize=auto;html=1;exitX=0.311;exitY=-0.017;exitDx=0;exitDy=0;endArrow=block;endFill=1;entryX=0.75;entryY=1;entryDx=0;entryDy=0;exitPerimeter=0;" parent="1" source="SNIWQE7JzBNAjQenBuYs-65" target="vzGrpNzlCgdCoovgSfa--18" edge="1">
                    <mxGeometry relative="1" as="geometry">
                        <mxPoint x="1096" y="715" as="sourcePoint"/>
                        <Array as="points">
                            <mxPoint x="1098" y="715"/>
                        </Array>
                    </mxGeometry>
                </mxCell>
                <mxCell id="vzGrpNzlCgdCoovgSfa--18" value="" style="rounded=1;whiteSpace=wrap;html=1;" parent="1" vertex="1">
                    <mxGeometry x="1068" y="40" width="40" height="80" as="geometry"/>
                </mxCell>
                <mxCell id="vzGrpNzlCgdCoovgSfa--22" value="UART T" style="text;html=1;strokeColor=none;fillColor=none;align=center;verticalAlign=middle;whiteSpace=wrap;rounded=0;" parent="1" vertex="1">
                    <mxGeometry x="1058" y="10" width="60" height="30" as="geometry"/>
                </mxCell>
                <mxCell id="SNIWQE7JzBNAjQenBuYs-5" value="" style="endArrow=none;html=1;rounded=1;" parent="1" edge="1">
                    <mxGeometry width="50" height="50" relative="1" as="geometry">
                        <mxPoint x="508.5" y="695" as="sourcePoint"/>
                        <mxPoint x="529.5" y="675" as="targetPoint"/>
                    </mxGeometry>
                </mxCell>
                <mxCell id="SNIWQE7JzBNAjQenBuYs-7" value="2" style="text;html=1;strokeColor=none;fillColor=none;align=center;verticalAlign=middle;whiteSpace=wrap;rounded=0;" parent="1" vertex="1">
                    <mxGeometry x="509" y="670" width="60" height="30" as="geometry"/>
                </mxCell>
                <mxCell id="SNIWQE7JzBNAjQenBuYs-9" value="" style="endArrow=none;html=1;rounded=1;" parent="1" edge="1">
                    <mxGeometry width="50" height="50" relative="1" as="geometry">
                        <mxPoint x="1064" y="690" as="sourcePoint"/>
                        <mxPoint x="1085" y="670" as="targetPoint"/>
                    </mxGeometry>
                </mxCell>
                <mxCell id="SNIWQE7JzBNAjQenBuYs-11" value="" style="endArrow=none;html=1;rounded=1;" parent="1" edge="1">
                    <mxGeometry width="50" height="50" relative="1" as="geometry">
                        <mxPoint x="203.5" y="690" as="sourcePoint"/>
                        <mxPoint x="224.5" y="670" as="targetPoint"/>
                    </mxGeometry>
                </mxCell>
                <mxCell id="SNIWQE7JzBNAjQenBuYs-13" value="1" style="text;html=1;strokeColor=none;fillColor=none;align=center;verticalAlign=middle;whiteSpace=wrap;rounded=0;" parent="1" vertex="1">
                    <mxGeometry x="199" y="670" width="60" height="30" as="geometry"/>
                </mxCell>
                <mxCell id="SNIWQE7JzBNAjQenBuYs-15" value="1" style="text;html=1;strokeColor=none;fillColor=none;align=center;verticalAlign=middle;whiteSpace=wrap;rounded=0;" parent="1" vertex="1">
                    <mxGeometry x="1024" y="670" width="60" height="30" as="geometry"/>
                </mxCell>
                <mxCell id="SNIWQE7JzBNAjQenBuYs-23" value="ctr" style="text;html=1;strokeColor=none;fillColor=none;align=center;verticalAlign=middle;whiteSpace=wrap;rounded=0;" parent="1" vertex="1">
                    <mxGeometry x="489" y="715" width="60" height="30" as="geometry"/>
                </mxCell>
                <mxCell id="SNIWQE7JzBNAjQenBuYs-25" value="rx" style="text;html=1;strokeColor=none;fillColor=none;align=center;verticalAlign=middle;whiteSpace=wrap;rounded=0;" parent="1" vertex="1">
                    <mxGeometry x="112" y="170" width="60" height="30" as="geometry"/>
                </mxCell>
                <mxCell id="SNIWQE7JzBNAjQenBuYs-29" style="edgeStyle=orthogonalEdgeStyle;rounded=1;orthogonalLoop=1;jettySize=auto;html=1;exitX=0.731;exitY=0.013;exitDx=0;exitDy=0;entryX=0.5;entryY=1;entryDx=0;entryDy=0;endArrow=block;endFill=1;exitPerimeter=0;" parent="1" target="XavPDIhAIsiHv7DO1WEM-10" edge="1">
                    <mxGeometry relative="1" as="geometry">
                        <mxPoint x="649.1799999999998" y="716.04" as="sourcePoint"/>
                    </mxGeometry>
                </mxCell>
                <mxCell id="SNIWQE7JzBNAjQenBuYs-30" value="wr" style="text;html=1;strokeColor=none;fillColor=none;align=center;verticalAlign=middle;whiteSpace=wrap;rounded=0;" parent="1" vertex="1">
                    <mxGeometry x="619" y="715" width="60" height="30" as="geometry"/>
                </mxCell>
                <mxCell id="SNIWQE7JzBNAjQenBuYs-32" value="" style="endArrow=none;html=1;rounded=1;" parent="1" edge="1">
                    <mxGeometry width="50" height="50" relative="1" as="geometry">
                        <mxPoint x="637.5" y="690" as="sourcePoint"/>
                        <mxPoint x="658.5" y="670" as="targetPoint"/>
                    </mxGeometry>
                </mxCell>
                <mxCell id="SNIWQE7JzBNAjQenBuYs-33" value="1" style="text;html=1;strokeColor=none;fillColor=none;align=center;verticalAlign=middle;whiteSpace=wrap;rounded=0;" parent="1" vertex="1">
                    <mxGeometry x="634" y="670" width="60" height="30" as="geometry"/>
                </mxCell>
                <mxCell id="SNIWQE7JzBNAjQenBuYs-47" style="edgeStyle=orthogonalEdgeStyle;rounded=1;orthogonalLoop=1;jettySize=auto;html=1;exitX=0.708;exitY=0.006;exitDx=0;exitDy=0;entryX=0.5;entryY=1;entryDx=0;entryDy=0;endArrow=block;endFill=1;exitPerimeter=0;" parent="1" target="SNIWQE7JzBNAjQenBuYs-36" edge="1">
                    <mxGeometry relative="1" as="geometry">
                        <mxPoint x="879.24" y="715.48" as="sourcePoint"/>
                    </mxGeometry>
                </mxCell>
                <mxCell id="SNIWQE7JzBNAjQenBuYs-50" style="edgeStyle=orthogonalEdgeStyle;rounded=1;orthogonalLoop=1;jettySize=auto;html=1;exitX=1;exitY=0.5;exitDx=0;exitDy=0;endArrow=block;endFill=1;entryX=0;entryY=0.5;entryDx=0;entryDy=0;" parent="1" source="SNIWQE7JzBNAjQenBuYs-36" target="CEuMxIN872mGvEXIS4uV-9" edge="1">
                    <mxGeometry relative="1" as="geometry">
                        <Array as="points">
                            <mxPoint x="940" y="360"/>
                            <mxPoint x="940" y="40"/>
                            <mxPoint x="380" y="40"/>
                            <mxPoint x="380" y="250"/>
                        </Array>
                        <mxPoint x="496.99" y="249.5" as="targetPoint"/>
                    </mxGeometry>
                </mxCell>
                <mxCell id="2" style="edgeStyle=none;html=1;exitX=1;exitY=0.5;exitDx=0;exitDy=0;rounded=1;" parent="1" source="SNIWQE7JzBNAjQenBuYs-36" edge="1">
                    <mxGeometry relative="1" as="geometry">
                        <mxPoint x="960" y="280" as="targetPoint"/>
                        <Array as="points">
                            <mxPoint x="940" y="360"/>
                            <mxPoint x="940" y="280"/>
                        </Array>
                    </mxGeometry>
                </mxCell>
                <mxCell id="SNIWQE7JzBNAjQenBuYs-36" value="" style="rounded=1;whiteSpace=wrap;html=1;" parent="1" vertex="1">
                    <mxGeometry x="859" y="320" width="40" height="80" as="geometry"/>
                </mxCell>
                <mxCell id="SNIWQE7JzBNAjQenBuYs-45" style="edgeStyle=orthogonalEdgeStyle;rounded=1;orthogonalLoop=1;jettySize=auto;html=1;exitX=0.5;exitY=0;exitDx=0;exitDy=0;endArrow=block;endFill=1;" parent="1" source="SNIWQE7JzBNAjQenBuYs-37" edge="1">
                    <mxGeometry relative="1" as="geometry">
                        <mxPoint x="1034" y="715" as="targetPoint"/>
                        <Array as="points">
                            <mxPoint x="1034" y="261"/>
                        </Array>
                    </mxGeometry>
                </mxCell>
                <mxCell id="SNIWQE7JzBNAjQenBuYs-37" value="" style="shape=trapezoid;perimeter=trapezoidPerimeter;whiteSpace=wrap;html=1;fixedSize=1;fillColor=none;rotation=90;" parent="1" vertex="1">
                    <mxGeometry x="933" y="244" width="90" height="34" as="geometry"/>
                </mxCell>
                <mxCell id="SNIWQE7JzBNAjQenBuYs-38" style="edgeStyle=orthogonalEdgeStyle;rounded=1;orthogonalLoop=1;jettySize=auto;html=1;exitX=1;exitY=0.25;exitDx=0;exitDy=0;entryX=0;entryY=0.5;entryDx=0;entryDy=0;endArrow=block;endFill=1;" parent="1" source="XavPDIhAIsiHv7DO1WEM-10" target="SNIWQE7JzBNAjQenBuYs-36" edge="1">
                    <mxGeometry relative="1" as="geometry"/>
                </mxCell>
                <mxCell id="SNIWQE7JzBNAjQenBuYs-43" value="comparator" style="text;html=1;strokeColor=none;fillColor=none;align=center;verticalAlign=middle;whiteSpace=wrap;rounded=0;" parent="1" vertex="1">
                    <mxGeometry x="953" y="506" width="60" height="30" as="geometry"/>
                </mxCell>
                <mxCell id="SNIWQE7JzBNAjQenBuYs-44" value="right element register (LER)" style="text;html=1;strokeColor=none;fillColor=none;align=center;verticalAlign=middle;whiteSpace=wrap;rounded=0;" parent="1" vertex="1">
                    <mxGeometry x="830" y="281" width="98" height="30" as="geometry"/>
                </mxCell>
                <mxCell id="SNIWQE7JzBNAjQenBuYs-48" value="ld" style="text;html=1;strokeColor=none;fillColor=none;align=center;verticalAlign=middle;whiteSpace=wrap;rounded=0;" parent="1" vertex="1">
                    <mxGeometry x="849" y="715" width="60" height="30" as="geometry"/>
                </mxCell>
                <mxCell id="SNIWQE7JzBNAjQenBuYs-49" value="new_min" style="text;html=1;strokeColor=none;fillColor=none;align=center;verticalAlign=middle;whiteSpace=wrap;rounded=0;" parent="1" vertex="1">
                    <mxGeometry x="998" y="715" width="60" height="30" as="geometry"/>
                </mxCell>
                <mxCell id="SNIWQE7JzBNAjQenBuYs-62" value="tx_done" style="text;html=1;strokeColor=none;fillColor=none;align=center;verticalAlign=middle;whiteSpace=wrap;rounded=0;" parent="1" vertex="1">
                    <mxGeometry x="1035" y="752" width="60" height="30" as="geometry"/>
                </mxCell>
                <mxCell id="SNIWQE7JzBNAjQenBuYs-63" value="" style="endArrow=none;html=1;rounded=1;" parent="1" edge="1">
                    <mxGeometry width="50" height="50" relative="1" as="geometry">
                        <mxPoint x="1086" y="690" as="sourcePoint"/>
                        <mxPoint x="1107" y="670" as="targetPoint"/>
                    </mxGeometry>
                </mxCell>
                <mxCell id="SNIWQE7JzBNAjQenBuYs-65" value="tx_start" style="text;html=1;strokeColor=none;fillColor=none;align=center;verticalAlign=middle;whiteSpace=wrap;rounded=0;" parent="1" vertex="1">
                    <mxGeometry x="1080" y="715" width="60" height="30" as="geometry"/>
                </mxCell>
                <mxCell id="SNIWQE7JzBNAjQenBuYs-66" value="" style="endArrow=none;html=1;rounded=1;" parent="1" edge="1">
                    <mxGeometry width="50" height="50" relative="1" as="geometry">
                        <mxPoint x="868.5" y="690" as="sourcePoint"/>
                        <mxPoint x="889.5" y="670" as="targetPoint"/>
                    </mxGeometry>
                </mxCell>
                <mxCell id="SNIWQE7JzBNAjQenBuYs-67" value="1" style="text;html=1;strokeColor=none;fillColor=none;align=center;verticalAlign=middle;whiteSpace=wrap;rounded=0;" parent="1" vertex="1">
                    <mxGeometry x="865" y="670" width="60" height="30" as="geometry"/>
                </mxCell>
                <mxCell id="6G7kog38tWFpas8sZ1hU-8" value="rx_done" style="text;html=1;strokeColor=none;fillColor=none;align=center;verticalAlign=middle;whiteSpace=wrap;rounded=0;" parent="1" vertex="1">
                    <mxGeometry x="183" y="715" width="60" height="30" as="geometry"/>
                </mxCell>
                <mxCell id="6G7kog38tWFpas8sZ1hU-9" value="lec_value" style="text;html=1;strokeColor=none;fillColor=none;align=center;verticalAlign=middle;whiteSpace=wrap;rounded=0;" parent="1" vertex="1">
                    <mxGeometry x="77" y="715" width="60" height="30" as="geometry"/>
                </mxCell>
                <mxCell id="6G7kog38tWFpas8sZ1hU-11" value="" style="endArrow=none;html=1;rounded=1;" parent="1" edge="1">
                    <mxGeometry width="50" height="50" relative="1" as="geometry">
                        <mxPoint x="92.5" y="690" as="sourcePoint"/>
                        <mxPoint x="113.5" y="670" as="targetPoint"/>
                    </mxGeometry>
                </mxCell>
                <mxCell id="6G7kog38tWFpas8sZ1hU-12" value="8" style="text;html=1;strokeColor=none;fillColor=none;align=center;verticalAlign=middle;whiteSpace=wrap;rounded=0;" parent="1" vertex="1">
                    <mxGeometry x="89" y="670" width="60" height="30" as="geometry"/>
                </mxCell>
                <mxCell id="6G7kog38tWFpas8sZ1hU-13" value="" style="endArrow=none;html=1;rounded=1;" parent="1" edge="1">
                    <mxGeometry width="50" height="50" relative="1" as="geometry">
                        <mxPoint x="249.5" y="690" as="sourcePoint"/>
                        <mxPoint x="270.5" y="670" as="targetPoint"/>
                    </mxGeometry>
                </mxCell>
                <mxCell id="6G7kog38tWFpas8sZ1hU-14" value="8" style="text;html=1;strokeColor=none;fillColor=none;align=center;verticalAlign=middle;whiteSpace=wrap;rounded=0;" parent="1" vertex="1">
                    <mxGeometry x="246" y="670" width="60" height="30" as="geometry"/>
                </mxCell>
                <mxCell id="6G7kog38tWFpas8sZ1hU-16" value="" style="endArrow=none;html=1;rounded=1;" parent="1" edge="1">
                    <mxGeometry width="50" height="50" relative="1" as="geometry">
                        <mxPoint x="1022.5" y="690" as="sourcePoint"/>
                        <mxPoint x="1043.5" y="670" as="targetPoint"/>
                    </mxGeometry>
                </mxCell>
                <mxCell id="6G7kog38tWFpas8sZ1hU-17" value="1" style="text;html=1;strokeColor=none;fillColor=none;align=center;verticalAlign=middle;whiteSpace=wrap;rounded=0;" parent="1" vertex="1">
                    <mxGeometry x="982" y="670" width="60" height="30" as="geometry"/>
                </mxCell>
                <mxCell id="oYQ-7bH0k8p__cUf9KNq-4" value="" style="endArrow=none;html=1;rounded=1;" parent="1" edge="1">
                    <mxGeometry width="50" height="50" relative="1" as="geometry">
                        <mxPoint x="92.5" y="490" as="sourcePoint"/>
                        <mxPoint x="113.5" y="470" as="targetPoint"/>
                    </mxGeometry>
                </mxCell>
                <mxCell id="oYQ-7bH0k8p__cUf9KNq-5" value="8" style="text;html=1;strokeColor=none;fillColor=none;align=center;verticalAlign=middle;whiteSpace=wrap;rounded=0;" parent="1" vertex="1">
                    <mxGeometry x="89" y="470" width="60" height="30" as="geometry"/>
                </mxCell>
                <mxCell id="oYQ-7bH0k8p__cUf9KNq-9" value="" style="endArrow=none;html=1;rounded=1;" parent="1" edge="1">
                    <mxGeometry width="50" height="50" relative="1" as="geometry">
                        <mxPoint x="230.5" y="365" as="sourcePoint"/>
                        <mxPoint x="251.5" y="345" as="targetPoint"/>
                    </mxGeometry>
                </mxCell>
                <mxCell id="oYQ-7bH0k8p__cUf9KNq-10" value="8" style="text;html=1;strokeColor=none;fillColor=none;align=center;verticalAlign=middle;whiteSpace=wrap;rounded=0;" parent="1" vertex="1">
                    <mxGeometry x="214" y="322" width="60" height="30" as="geometry"/>
                </mxCell>
                <mxCell id="oYQ-7bH0k8p__cUf9KNq-13" value="" style="endArrow=none;html=1;rounded=1;" parent="1" edge="1">
                    <mxGeometry width="50" height="50" relative="1" as="geometry">
                        <mxPoint x="699.5" y="371" as="sourcePoint"/>
                        <mxPoint x="720.5" y="351" as="targetPoint"/>
                    </mxGeometry>
                </mxCell>
                <mxCell id="oYQ-7bH0k8p__cUf9KNq-14" value="8" style="text;html=1;strokeColor=none;fillColor=none;align=center;verticalAlign=middle;whiteSpace=wrap;rounded=0;" parent="1" vertex="1">
                    <mxGeometry x="703" y="328" width="20" height="30" as="geometry"/>
                </mxCell>
                <mxCell id="oYQ-7bH0k8p__cUf9KNq-17" value="" style="endArrow=none;html=1;rounded=1;" parent="1" edge="1">
                    <mxGeometry width="50" height="50" relative="1" as="geometry">
                        <mxPoint x="558" y="320" as="sourcePoint"/>
                        <mxPoint x="579" y="300" as="targetPoint"/>
                    </mxGeometry>
                </mxCell>
                <mxCell id="oYQ-7bH0k8p__cUf9KNq-18" value="8" style="text;html=1;strokeColor=none;fillColor=none;align=center;verticalAlign=middle;whiteSpace=wrap;rounded=0;" parent="1" vertex="1">
                    <mxGeometry x="554.5" y="300" width="60" height="30" as="geometry"/>
                </mxCell>
                <mxCell id="oYQ-7bH0k8p__cUf9KNq-19" value="" style="endArrow=none;html=1;rounded=1;" parent="1" edge="1">
                    <mxGeometry width="50" height="50" relative="1" as="geometry">
                        <mxPoint x="558.5" y="455" as="sourcePoint"/>
                        <mxPoint x="579.5" y="435" as="targetPoint"/>
                    </mxGeometry>
                </mxCell>
                <mxCell id="oYQ-7bH0k8p__cUf9KNq-20" value="8" style="text;html=1;strokeColor=none;fillColor=none;align=center;verticalAlign=middle;whiteSpace=wrap;rounded=0;" parent="1" vertex="1">
                    <mxGeometry x="555" y="435" width="60" height="30" as="geometry"/>
                </mxCell>
                <mxCell id="oYQ-7bH0k8p__cUf9KNq-21" value="00&lt;span style=&quot;color: rgba(0, 0, 0, 0); font-family: monospace; font-size: 0px;&quot;&gt;%3CmxGraphModel%3E%3Croot%3E%3CmxCell%20id%3D%220%22%2F%3E%3CmxCell%20id%3D%221%22%20parent%3D%220%22%2F%3E%3CmxCell%20id%3D%222%22%20value%3D%22%22%20style%3D%22rounded%3D1%3BwhiteSpace%3Dwrap%3Bhtml%3D1%3B%22%20vertex%3D%221%22%20parent%3D%221%22%3E%3CmxGeometry%20x%3D%22149%22%20y%3D%22315%22%20width%3D%2240%22%20height%3D%2280%22%20as%3D%22geometry%22%2F%3E%3C%2FmxCell%3E%3CmxCell%20id%3D%223%22%20value%3D%22right%20elements%20counter%20(REC)%22%20style%3D%22text%3Bhtml%3D1%3BstrokeColor%3Dnone%3BfillColor%3Dnone%3Balign%3Dcenter%3BverticalAlign%3Dmiddle%3BwhiteSpace%3Dwrap%3Brounded%3D0%3B%22%20vertex%3D%221%22%20parent%3D%221%22%3E%3CmxGeometry%20x%3D%22112%22%20y%3D%22280%22%20width%3D%22110%22%20height%3D%2230%22%20as%3D%22geometry%22%2F%3E%3C%2FmxCell%3E%3C%2Froot%3E%3C%2FmxGraphModel%3E&lt;/span&gt;" style="text;html=1;strokeColor=none;fillColor=none;align=left;verticalAlign=middle;whiteSpace=wrap;rounded=0;" parent="1" vertex="1">
                    <mxGeometry x="453.5" y="490" width="31" height="30" as="geometry"/>
                </mxCell>
                <mxCell id="oYQ-7bH0k8p__cUf9KNq-23" value="11" style="text;html=1;strokeColor=none;fillColor=none;align=left;verticalAlign=middle;whiteSpace=wrap;rounded=0;" parent="1" vertex="1">
                    <mxGeometry x="455" y="430" width="31" height="30" as="geometry"/>
                </mxCell>
                <mxCell id="oYQ-7bH0k8p__cUf9KNq-24" value="00" style="text;html=1;strokeColor=none;fillColor=none;align=left;verticalAlign=middle;whiteSpace=wrap;rounded=0;" parent="1" vertex="1">
                    <mxGeometry x="501.75" y="280" width="31" height="30" as="geometry"/>
                </mxCell>
                <mxCell id="oYQ-7bH0k8p__cUf9KNq-33" value="" style="endArrow=none;dashed=1;html=1;rounded=1;" parent="1" edge="1">
                    <mxGeometry width="50" height="50" relative="1" as="geometry">
                        <mxPoint x="261" y="750" as="sourcePoint"/>
                        <mxPoint x="261" y="715" as="targetPoint"/>
                    </mxGeometry>
                </mxCell>
                <mxCell id="oYQ-7bH0k8p__cUf9KNq-34" value="rec_value" style="text;html=1;strokeColor=none;fillColor=none;align=center;verticalAlign=middle;whiteSpace=wrap;rounded=0;" parent="1" vertex="1">
                    <mxGeometry x="233" y="752" width="60" height="30" as="geometry"/>
                </mxCell>
                <mxCell id="oYQ-7bH0k8p__cUf9KNq-37" value="ascii_r" style="text;html=1;strokeColor=none;fillColor=none;align=center;verticalAlign=middle;whiteSpace=wrap;rounded=0;" parent="1" vertex="1">
                    <mxGeometry x="282" y="715" width="60" height="30" as="geometry"/>
                </mxCell>
                <mxCell id="oYQ-7bH0k8p__cUf9KNq-49" value="data_out" style="text;html=1;strokeColor=none;fillColor=none;align=center;verticalAlign=middle;whiteSpace=wrap;rounded=0;" parent="1" vertex="1">
                    <mxGeometry x="710" y="715" width="60" height="30" as="geometry"/>
                </mxCell>
                <mxCell id="oYQ-7bH0k8p__cUf9KNq-50" value="" style="endArrow=none;dashed=1;html=1;rounded=1;" parent="1" edge="1">
                    <mxGeometry width="50" height="50" relative="1" as="geometry">
                        <mxPoint x="1076" y="750" as="sourcePoint"/>
                        <mxPoint x="1076" y="715" as="targetPoint"/>
                    </mxGeometry>
                </mxCell>
                <mxCell id="oYQ-7bH0k8p__cUf9KNq-52" value="" style="endArrow=none;html=1;rounded=1;" parent="1" edge="1">
                    <mxGeometry width="50" height="50" relative="1" as="geometry">
                        <mxPoint x="297.5" y="690" as="sourcePoint"/>
                        <mxPoint x="318.5" y="670" as="targetPoint"/>
                    </mxGeometry>
                </mxCell>
                <mxCell id="oYQ-7bH0k8p__cUf9KNq-53" value="8" style="text;html=1;strokeColor=none;fillColor=none;align=center;verticalAlign=middle;whiteSpace=wrap;rounded=0;" parent="1" vertex="1">
                    <mxGeometry x="294" y="670" width="60" height="30" as="geometry"/>
                </mxCell>
                <mxCell id="oYQ-7bH0k8p__cUf9KNq-56" value="lec_value" style="text;html=1;strokeColor=none;fillColor=none;align=center;verticalAlign=middle;whiteSpace=wrap;rounded=0;" parent="1" vertex="1">
                    <mxGeometry x="383" y="600" width="60" height="30" as="geometry"/>
                </mxCell>
                <mxCell id="oYQ-7bH0k8p__cUf9KNq-57" value="rec_value" style="text;html=1;strokeColor=none;fillColor=none;align=center;verticalAlign=middle;whiteSpace=wrap;rounded=0;" parent="1" vertex="1">
                    <mxGeometry x="379" y="320" width="60" height="30" as="geometry"/>
                </mxCell>
                <mxCell id="oYQ-7bH0k8p__cUf9KNq-58" value="ascii_r" style="text;html=1;strokeColor=none;fillColor=none;align=center;verticalAlign=middle;whiteSpace=wrap;rounded=0;" parent="1" vertex="1">
                    <mxGeometry x="246" y="184" width="60" height="30" as="geometry"/>
                </mxCell>
                <mxCell id="oYQ-7bH0k8p__cUf9KNq-61" value="1" style="text;html=1;strokeColor=none;fillColor=none;align=center;verticalAlign=middle;whiteSpace=wrap;rounded=0;" parent="1" vertex="1">
                    <mxGeometry x="1083" y="670" width="60" height="30" as="geometry"/>
                </mxCell>
                <mxCell id="oYQ-7bH0k8p__cUf9KNq-66" value="tx" style="text;html=1;strokeColor=none;fillColor=none;align=center;verticalAlign=middle;whiteSpace=wrap;rounded=0;" parent="1" vertex="1">
                    <mxGeometry x="1117.5" y="50" width="40" height="30" as="geometry"/>
                </mxCell>
                <mxCell id="CEuMxIN872mGvEXIS4uV-3" value="" style="endArrow=none;html=1;rounded=1;" parent="1" edge="1">
                    <mxGeometry width="50" height="50" relative="1" as="geometry">
                        <mxPoint x="729.5" y="690" as="sourcePoint"/>
                        <mxPoint x="750.5" y="670" as="targetPoint"/>
                    </mxGeometry>
                </mxCell>
                <mxCell id="CEuMxIN872mGvEXIS4uV-4" value="8" style="text;html=1;strokeColor=none;fillColor=none;align=center;verticalAlign=middle;whiteSpace=wrap;rounded=0;" parent="1" vertex="1">
                    <mxGeometry x="726" y="670" width="60" height="30" as="geometry"/>
                </mxCell>
                <mxCell id="CEuMxIN872mGvEXIS4uV-5" value="rer_value" style="text;html=1;strokeColor=none;fillColor=none;align=center;verticalAlign=middle;whiteSpace=wrap;rounded=0;" parent="1" vertex="1">
                    <mxGeometry x="933" y="358" width="60" height="30" as="geometry"/>
                </mxCell>
                <mxCell id="CEuMxIN872mGvEXIS4uV-10" style="edgeStyle=orthogonalEdgeStyle;rounded=1;orthogonalLoop=1;jettySize=auto;html=1;exitX=1;exitY=0.5;exitDx=0;exitDy=0;entryX=-0.025;entryY=0.172;entryDx=0;entryDy=0;entryPerimeter=0;endArrow=block;endFill=1;" parent="1" source="CEuMxIN872mGvEXIS4uV-6" target="CEuMxIN872mGvEXIS4uV-9" edge="1">
                    <mxGeometry relative="1" as="geometry">
                        <Array as="points">
                            <mxPoint x="870" y="245"/>
                            <mxPoint x="870" y="120"/>
                            <mxPoint x="460" y="120"/>
                            <mxPoint x="460" y="198"/>
                        </Array>
                    </mxGeometry>
                </mxCell>
                <mxCell id="CEuMxIN872mGvEXIS4uV-15" style="edgeStyle=orthogonalEdgeStyle;rounded=1;orthogonalLoop=1;jettySize=auto;html=1;entryX=0.5;entryY=1;entryDx=0;entryDy=0;endArrow=block;endFill=1;" parent="1" target="CEuMxIN872mGvEXIS4uV-6" edge="1">
                    <mxGeometry relative="1" as="geometry">
                        <mxPoint x="806" y="715" as="sourcePoint"/>
                    </mxGeometry>
                </mxCell>
                <mxCell id="3" style="edgeStyle=none;rounded=1;html=1;exitX=1;exitY=0.5;exitDx=0;exitDy=0;" parent="1" source="CEuMxIN872mGvEXIS4uV-6" edge="1">
                    <mxGeometry relative="1" as="geometry">
                        <mxPoint x="960" y="245" as="targetPoint"/>
                    </mxGeometry>
                </mxCell>
                <mxCell id="CEuMxIN872mGvEXIS4uV-6" value="" style="rounded=1;whiteSpace=wrap;html=1;" parent="1" vertex="1">
                    <mxGeometry x="786" y="205" width="40" height="80" as="geometry"/>
                </mxCell>
                <mxCell id="CEuMxIN872mGvEXIS4uV-12" style="edgeStyle=orthogonalEdgeStyle;rounded=1;orthogonalLoop=1;jettySize=auto;html=1;exitX=1;exitY=0.25;exitDx=0;exitDy=0;entryX=0;entryY=0.5;entryDx=0;entryDy=0;endArrow=block;endFill=1;" parent="1" source="XavPDIhAIsiHv7DO1WEM-10" target="vzGrpNzlCgdCoovgSfa--18" edge="1">
                    <mxGeometry relative="1" as="geometry">
                        <Array as="points">
                            <mxPoint x="740" y="360"/>
                            <mxPoint x="740" y="80"/>
                        </Array>
                    </mxGeometry>
                </mxCell>
                <mxCell id="CEuMxIN872mGvEXIS4uV-13" style="edgeStyle=orthogonalEdgeStyle;rounded=1;orthogonalLoop=1;jettySize=auto;html=1;exitX=1;exitY=0.25;exitDx=0;exitDy=0;entryX=0;entryY=0.5;entryDx=0;entryDy=0;endArrow=block;endFill=1;" parent="1" source="XavPDIhAIsiHv7DO1WEM-10" target="CEuMxIN872mGvEXIS4uV-6" edge="1">
                    <mxGeometry relative="1" as="geometry">
                        <Array as="points">
                            <mxPoint x="740" y="360"/>
                            <mxPoint x="740" y="245"/>
                        </Array>
                    </mxGeometry>
                </mxCell>
                <mxCell id="CEuMxIN872mGvEXIS4uV-16" style="edgeStyle=orthogonalEdgeStyle;rounded=1;orthogonalLoop=1;jettySize=auto;html=1;exitX=1;exitY=0.25;exitDx=0;exitDy=0;endArrow=block;endFill=1;" parent="1" source="XavPDIhAIsiHv7DO1WEM-10" target="oYQ-7bH0k8p__cUf9KNq-49" edge="1">
                    <mxGeometry relative="1" as="geometry"/>
                </mxCell>
                <mxCell id="CEuMxIN872mGvEXIS4uV-17" value="left element&lt;br&gt;register (LER)" style="text;html=1;strokeColor=none;fillColor=none;align=center;verticalAlign=middle;whiteSpace=wrap;rounded=0;" parent="1" vertex="1">
                    <mxGeometry x="760" y="166" width="90" height="30" as="geometry"/>
                </mxCell>
                <mxCell id="CEuMxIN872mGvEXIS4uV-18" value="ld" style="text;html=1;strokeColor=none;fillColor=none;align=center;verticalAlign=middle;whiteSpace=wrap;rounded=0;" parent="1" vertex="1">
                    <mxGeometry x="776" y="715" width="60" height="30" as="geometry"/>
                </mxCell>
                <mxCell id="CEuMxIN872mGvEXIS4uV-19" value="10, 11" style="text;html=1;strokeColor=none;fillColor=none;align=left;verticalAlign=middle;whiteSpace=wrap;rounded=0;" parent="1" vertex="1">
                    <mxGeometry x="501.75" y="184" width="37.25" height="30" as="geometry"/>
                </mxCell>
                <mxCell id="CEuMxIN872mGvEXIS4uV-20" value="ler_value" style="text;html=1;strokeColor=none;fillColor=none;align=center;verticalAlign=middle;whiteSpace=wrap;rounded=0;" parent="1" vertex="1">
                    <mxGeometry x="643" y="120" width="60" height="30" as="geometry"/>
                </mxCell>
                <mxCell id="CEuMxIN872mGvEXIS4uV-22" value="rer_value" style="text;html=1;strokeColor=none;fillColor=none;align=center;verticalAlign=middle;whiteSpace=wrap;rounded=0;" parent="1" vertex="1">
                    <mxGeometry x="643" y="40" width="60" height="30" as="geometry"/>
                </mxCell>
                <mxCell id="d-AwTGX2iSbToSUt-Cqs-1" value="" style="endArrow=none;html=1;rounded=1;" parent="1" edge="1">
                    <mxGeometry width="50" height="50" relative="1" as="geometry">
                        <mxPoint x="792.5" y="690" as="sourcePoint"/>
                        <mxPoint x="813.5" y="670" as="targetPoint"/>
                    </mxGeometry>
                </mxCell>
                <mxCell id="d-AwTGX2iSbToSUt-Cqs-2" value="1" style="text;html=1;strokeColor=none;fillColor=none;align=center;verticalAlign=middle;whiteSpace=wrap;rounded=0;" parent="1" vertex="1">
                    <mxGeometry x="789" y="670" width="60" height="30" as="geometry"/>
                </mxCell>
                <mxCell id="7BWRWG86FXolI_ZsxiAK-1" value="01" style="text;html=1;strokeColor=none;fillColor=none;align=left;verticalAlign=middle;whiteSpace=wrap;rounded=0;" parent="1" vertex="1">
                    <mxGeometry x="503.25" y="235" width="31" height="30" as="geometry"/>
                </mxCell>
                <mxCell id="_Fv7SHHVzd6cgvTaUQfM-1" value="left elements counter (LEC)" style="text;html=1;strokeColor=none;fillColor=none;align=center;verticalAlign=middle;whiteSpace=wrap;rounded=0;" parent="1" vertex="1">
                    <mxGeometry x="-9" y="520" width="110" height="30" as="geometry"/>
                </mxCell>
                <mxCell id="7" style="edgeStyle=none;html=1;exitX=1;exitY=0.5;exitDx=0;exitDy=0;entryX=0;entryY=0.5;entryDx=0;entryDy=0;" edge="1" parent="1" source="4" target="6">
                    <mxGeometry relative="1" as="geometry"/>
                </mxCell>
                <mxCell id="8" style="edgeStyle=none;html=1;exitX=0.5;exitY=1;exitDx=0;exitDy=0;startArrow=classic;startFill=1;endArrow=none;endFill=0;" edge="1" parent="1" source="4">
                    <mxGeometry relative="1" as="geometry">
                        <mxPoint x="365" y="710" as="targetPoint"/>
                    </mxGeometry>
                </mxCell>
                <mxCell id="4" value="" style="rounded=1;whiteSpace=wrap;html=1;" vertex="1" parent="1">
                    <mxGeometry x="345" y="435" width="40" height="80" as="geometry"/>
                </mxCell>
                <mxCell id="5" value="right elements counter (REC)" style="text;html=1;strokeColor=none;fillColor=none;align=center;verticalAlign=middle;whiteSpace=wrap;rounded=0;" vertex="1" parent="1">
                    <mxGeometry x="310" y="395" width="110" height="30" as="geometry"/>
                </mxCell>
                <mxCell id="6" value="01-10" style="text;html=1;strokeColor=none;fillColor=none;align=left;verticalAlign=middle;whiteSpace=wrap;rounded=0;" vertex="1" parent="1">
                    <mxGeometry x="449" y="460" width="41" height="30" as="geometry"/>
                </mxCell>
                <mxCell id="9" value="1" style="text;html=1;strokeColor=none;fillColor=none;align=center;verticalAlign=middle;whiteSpace=wrap;rounded=0;" vertex="1" parent="1">
                    <mxGeometry x="354" y="670" width="60" height="30" as="geometry"/>
                </mxCell>
                <mxCell id="10" value="" style="endArrow=none;html=1;rounded=1;entryX=0.5;entryY=0;entryDx=0;entryDy=0;exitX=0;exitY=0.75;exitDx=0;exitDy=0;" edge="1" parent="1" source="9" target="9">
                    <mxGeometry width="50" height="50" relative="1" as="geometry">
                        <mxPoint x="468.5" y="700" as="sourcePoint"/>
                        <mxPoint x="489.5" y="680" as="targetPoint"/>
                    </mxGeometry>
                </mxCell>
            </root>
        </mxGraphModel>
    </diagram>
</mxfile>